<svg width="25" height="25" viewBox="0 0 25 25" fill="none" xmlns="http://www.w3.org/2000/svg">
<g clip-path="url(#clip0_24403_6143)">
<path d="M18.2329 0H6.76727C3.03574 0 0 3.03573 0 6.76726V18.2327C0 21.9642 3.03574 25 6.76727 25H18.2329C21.9643 25 25 21.9642 25 18.2327V6.76726C25 3.03573 21.9643 0 18.2329 0V0ZM23.5344 18.2327C23.5344 21.1561 21.1561 23.5343 18.2329 23.5343H6.76727C3.84388 23.5343 1.46561 21.1561 1.46561 18.2327V6.76726C1.46561 3.84387 3.84388 1.4656 6.76727 1.4656H18.2329C21.1561 1.4656 23.5344 3.84387 23.5344 6.76726V18.2327Z" fill="white"/>
<path d="M10.7011 12.1232C11.5037 11.7738 11.9054 11.0228 11.9054 9.87043C11.9054 8.20817 10.9561 7.37695 9.05757 7.37695H6.3232C6.10576 7.37695 5.91693 7.42883 5.75652 7.53278C5.59573 7.63673 5.51562 7.77845 5.51562 7.95774V17.1668C5.51562 17.318 5.59116 17.4502 5.74241 17.5635C5.89328 17.6768 6.08707 17.7335 6.3232 17.7335H9.32689C10.1957 17.7335 10.8852 17.495 11.3954 17.018C11.9054 16.5412 12.1604 15.7784 12.1604 14.73V14.4324C12.1604 13.7713 12.0374 13.2684 11.7919 12.9235C11.5463 12.5789 11.1827 12.3122 10.7011 12.1232V12.1232ZM7.34325 8.99209H8.91585C9.27482 8.99209 9.55577 9.09833 9.7589 9.31081C9.96184 9.52329 10.0635 9.81378 10.0635 10.1821C10.0635 10.5599 9.96661 10.8575 9.77302 11.0747C9.57942 11.292 9.29847 11.4005 8.93016 11.4005H7.34325V8.99209ZM10.3185 14.5741C10.3185 15.6037 9.86037 16.1185 8.94427 16.1185H7.34325V12.8457H8.94427C9.39765 12.8457 9.73983 12.9639 9.97138 13.1999C10.2027 13.436 10.3185 13.8186 10.3185 14.3475V14.5741Z" fill="white"/>
<path d="M18.6355 14.8425C18.8337 14.8425 18.9943 14.8332 19.1171 14.8145C19.2398 14.7958 19.3744 14.7489 19.5209 14.6741C19.6672 14.5993 19.7759 14.4706 19.8467 14.2882C19.9177 14.1059 19.9531 13.8745 19.9531 13.5938C19.9531 12.8253 19.6672 12.1871 19.096 11.6796C18.5243 11.172 17.8371 10.918 17.0345 10.918C16.1749 10.918 15.4428 11.1968 14.8384 11.754C14.234 12.3113 13.9316 12.9773 13.9316 13.7517V14.9558C13.9316 15.825 14.2505 16.5263 14.888 17.0598C15.5256 17.5935 16.3496 17.8603 17.3603 17.8603C18.0687 17.8603 18.6613 17.7306 19.1383 17.4707C19.6152 17.2111 19.854 16.9488 19.854 16.6843C19.854 16.5143 19.7878 16.3371 19.6556 16.1531C19.5232 15.9688 19.358 15.8767 19.1597 15.8767C19.0555 15.8767 18.8289 15.9667 18.4795 16.146C18.1301 16.3255 17.7759 16.4151 17.4169 16.4151C16.9163 16.4151 16.515 16.29 16.2128 16.0398C15.9103 15.7895 15.7595 15.4613 15.7595 15.055V14.8425H18.6355ZM15.7595 13.3952C15.7595 13.0866 15.8821 12.8373 16.1278 12.6477C16.3732 12.4581 16.6612 12.3632 16.992 12.3632C17.3412 12.3632 17.6367 12.4604 17.8776 12.6542C18.1183 12.8484 18.2388 13.1 18.2388 13.4086C18.2388 13.5497 18.2079 13.6445 18.1467 13.693C18.0851 13.7416 17.9788 13.7658 17.828 13.7658H15.7595V13.3952Z" fill="white"/>
<path d="M19.2578 8.68555H14.6744C14.2697 8.68555 13.9414 9.0138 13.9414 9.41835C13.9414 9.82309 14.2697 10.1513 14.6744 10.1513H19.2578C19.6625 10.1513 19.9908 9.82309 19.9908 9.41835C19.9908 9.0138 19.6625 8.68555 19.2578 8.68555V8.68555Z" fill="white"/>
</g>
<defs>
<clipPath id="clip0_24403_6143">
<rect width="25" height="25" fill="white"/>
</clipPath>
</defs>
</svg>
