<svg width="25" height="25" viewBox="0 0 25 25" fill="none" xmlns="http://www.w3.org/2000/svg">
<g clip-path="url(#clip0_24403_6141)">
<path d="M14.188 24.9512H10.1767C9.50667 24.9512 8.96162 24.4072 8.96162 23.7385V14.7083H6.62132C5.95129 14.7083 5.40625 14.1642 5.40625 13.4956V9.6262C5.40625 8.95748 5.95129 8.41351 6.62132 8.41351H8.96162V6.47583C8.96162 4.55456 9.5661 2.91996 10.7095 1.74904C11.8581 0.572777 13.4632 -0.0488281 15.3513 -0.0488281L18.4106 -0.043869C19.0795 -0.0427246 19.6235 0.501251 19.6235 1.16882V4.76151C19.6235 5.43022 19.0787 5.9742 18.4089 5.9742L16.3491 5.97496C15.7209 5.97496 15.561 6.10066 15.5268 6.13918C15.4704 6.20308 15.4033 6.38371 15.4033 6.88248V8.41332H18.2541C18.4687 8.41332 18.6766 8.46615 18.8553 8.56571C19.2408 8.78067 19.4804 9.18713 19.4804 9.62639L19.4789 13.4958C19.4789 14.1642 18.9338 14.7081 18.2638 14.7081H15.4033V23.7385C15.4033 24.4072 14.8581 24.9512 14.188 24.9512V24.9512ZM10.4301 23.4856H13.9346V14.0522C13.9346 13.6057 14.2987 13.2425 14.7459 13.2425H18.0104L18.0117 9.87911H14.7457C14.2985 9.87911 13.9346 9.51595 13.9346 9.06944V6.88248C13.9346 6.30989 13.9929 5.65872 14.426 5.1693C14.9492 4.57764 15.7739 4.50935 16.3487 4.50935L18.1551 4.50859V1.42136L15.3502 1.41678C12.3158 1.41678 10.4301 3.35541 10.4301 6.47583V9.06944C10.4301 9.51576 10.0662 9.87911 9.61904 9.87911H6.87472V13.2425H9.61904C10.0662 13.2425 10.4301 13.6057 10.4301 14.0522V23.4856ZM18.4077 1.42174H18.4079H18.4077Z" fill="white"/>
</g>
<defs>
<clipPath id="clip0_24403_6141">
<rect width="25" height="25" fill="white"/>
</clipPath>
</defs>
</svg>
