<svg width="25" height="25" viewBox="0 0 25 25" fill="none" xmlns="http://www.w3.org/2000/svg">
<g clip-path="url(#clip0_24403_6134)">
<path d="M18.2327 0H6.76726C3.03573 0 0 3.03573 0 6.76726V18.2329C0 21.9642 3.03573 25 6.76726 25H18.2329C21.9642 25 25 21.9642 25 18.2329V6.76726C25 3.03573 21.9642 0 18.2327 0V0ZM23.5343 18.2329C23.5343 21.1561 21.1561 23.5343 18.2327 23.5343H6.76726C3.84387 23.5343 1.4656 21.1561 1.4656 18.2329V6.76726C1.4656 3.84387 3.84387 1.4656 6.76726 1.4656H18.2329C21.1561 1.4656 23.5343 3.84387 23.5343 6.76726V18.2329Z" fill="white"/>
<path d="M12.4998 5.66406C8.7305 5.66406 5.66406 8.7305 5.66406 12.4998C5.66406 16.2691 8.7305 19.3355 12.4998 19.3355C16.2691 19.3355 19.3355 16.2691 19.3355 12.4998C19.3355 8.7305 16.2691 5.66406 12.4998 5.66406V5.66406ZM12.4998 17.8699C9.53883 17.8699 7.12967 15.461 7.12967 12.4998C7.12967 9.53883 9.53883 7.12967 12.4998 7.12967C15.461 7.12967 17.8699 9.53883 17.8699 12.4998C17.8699 15.461 15.461 17.8699 12.4998 17.8699V17.8699Z" fill="white"/>
<path d="M19.4984 3.23633C18.3845 3.23633 17.4785 4.14251 17.4785 5.25621C17.4785 6.3701 18.3845 7.27628 19.4984 7.27628C20.6123 7.27628 21.5185 6.3701 21.5185 5.25621C21.5185 4.14232 20.6123 3.23633 19.4984 3.23633ZM19.4984 5.81048C19.1928 5.81048 18.9441 5.56176 18.9441 5.25621C18.9441 4.95046 19.1928 4.70193 19.4984 4.70193C19.8041 4.70193 20.0529 4.95046 20.0529 5.25621C20.0529 5.56176 19.8041 5.81048 19.4984 5.81048Z" fill="white"/>
</g>
<defs>
<clipPath id="clip0_24403_6134">
<rect width="25" height="25" fill="white"/>
</clipPath>
</defs>
</svg>
