<svg width="89" height="34" viewBox="0 0 89 34" fill="none" xmlns="http://www.w3.org/2000/svg">
<path d="M15.749 28.5977C15.6921 28.5977 15.5952 28.5749 15.4585 28.5293C15.3218 28.4951 15.1737 28.2957 15.0142 27.9312C14.8433 27.3957 14.7578 26.7633 14.7578 26.0342C14.7578 23.0036 16.1136 18.1045 18.8252 11.3369C19.0075 10.8812 19.0986 10.6362 19.0986 10.6021C18.8024 10.9894 18.341 11.6445 17.7144 12.5674C14.8433 16.7259 12.8096 19.3236 11.6133 20.3604C11.1462 20.6908 10.6904 20.856 10.2461 20.856C9.92708 20.856 9.50553 20.7135 8.98145 20.4287C8.22949 20.0072 7.85352 18.9989 7.85352 17.4038C7.85352 16.686 7.93327 15.6493 8.09277 14.2935C8.17253 13.5757 8.2124 13.1313 8.2124 12.9604C8.2124 12.8807 8.20671 12.8294 8.19531 12.8066C6.23568 16.3271 4.62923 19.7508 3.37598 23.0776C2.90885 24.3309 2.52148 25.1911 2.21387 25.6582C2.00879 25.9772 1.76383 26.1367 1.479 26.1367C1.33089 26.1367 1.17708 26.0911 1.01758 26C0.641602 25.7835 0.356771 25.4816 0.163086 25.0942C0.163086 24.9461 0.915039 23.0549 2.41895 19.4204C5.06217 13.0972 6.64583 9.06966 7.16992 7.33789C7.2041 7.14421 7.28955 7.04736 7.42627 7.04736C7.48324 7.04736 7.55729 7.07015 7.64844 7.11572C8.29785 7.42334 8.8903 7.81641 9.42578 8.29492C9.51693 8.37467 9.5625 8.46582 9.5625 8.56836C9.5625 8.71647 9.48275 8.97852 9.32324 9.35449C9.30046 9.38867 9.28906 9.42285 9.28906 9.45703C9.28906 9.49121 9.30046 9.52539 9.32324 9.55957C9.35742 9.59375 9.44287 9.65072 9.57959 9.73047C9.71631 9.79883 9.8929 9.90137 10.1094 10.0381C10.4284 10.266 10.5879 10.6647 10.5879 11.2344C10.5879 11.7926 10.4569 12.6927 10.1948 13.9346C9.80745 15.7461 9.61377 17.193 9.61377 18.2754C9.61377 18.6514 9.61947 18.8735 9.63086 18.9419C9.64225 18.9989 9.67643 19.0273 9.7334 19.0273C9.75618 19.0273 9.77327 19.0216 9.78467 19.0103C10.7531 18.3381 12.2969 16.7202 14.416 14.1567C16.2731 11.9123 18.0618 9.60514 19.7822 7.23535C21.5026 4.86556 22.716 3.02555 23.4224 1.71533C23.8097 1.00895 24.0775 0.655762 24.2256 0.655762C24.2826 0.655762 24.3395 0.672852 24.3965 0.707031C24.8636 0.934896 25.2852 1.22542 25.6611 1.57861C25.7409 1.65837 25.7808 1.74382 25.7808 1.83496C25.7808 1.94889 25.4674 2.51286 24.8408 3.52686C19.4404 12.2313 16.2902 19.5628 15.3901 25.5215C15.3104 26 15.2705 26.507 15.2705 27.0425C15.2705 27.4526 15.3332 27.8229 15.4585 28.1533C15.5382 28.3128 15.6123 28.3926 15.6807 28.3926C15.7262 28.3926 15.7661 28.3869 15.8003 28.3755C15.8459 28.3641 15.8914 28.3584 15.937 28.3584C15.9712 28.3584 16.0054 28.3698 16.0396 28.3926C15.9712 28.5293 15.8743 28.5977 15.749 28.5977ZM21.6272 21.3003C22.2539 21.2319 22.9375 20.8787 23.678 20.2407C24.4186 19.6027 25.125 18.8678 25.7972 18.0361C26.4808 17.193 27.0333 16.4411 27.4549 15.7803C27.8309 15.165 28.0188 14.7891 28.0188 14.6523V14.6182C26.6972 15.279 25.4098 16.1904 24.1565 17.3525C22.9147 18.5146 22.0488 19.5799 21.5589 20.5483C21.5019 20.7078 21.4734 20.8389 21.4734 20.9414C21.4734 21.0667 21.5247 21.1864 21.6272 21.3003ZM28.4632 23.8979C28.429 23.8979 28.2239 23.8923 27.8479 23.8809C27.472 23.8581 27.0276 23.4935 26.5149 22.7871C26.1845 22.32 26.0193 21.8187 26.0193 21.2832C26.0193 20.93 26.0535 20.6908 26.1219 20.5654C26.1333 20.5199 26.139 20.4686 26.139 20.4116L26.1219 20.2578C26.0535 20.2806 25.9111 20.423 25.6946 20.6851C25.387 21.0724 24.8344 21.6364 24.0369 22.377C23.2622 23.0264 22.5558 23.3511 21.9178 23.3511C20.8468 23.3511 20.1176 22.7757 19.7303 21.625C19.7075 21.5452 19.6961 21.4655 19.6961 21.3857C19.6961 20.9072 19.9752 20.161 20.5335 19.147C21.0804 18.1216 21.838 17.0221 22.8064 15.8486C23.7863 14.6751 24.7832 13.7523 25.7972 13.0801C26.4238 12.6585 26.9992 12.4478 27.5232 12.4478C27.8309 12.4478 28.1214 12.5275 28.3948 12.687L29.8987 13.627C30.7304 14.0713 31.1463 14.4188 31.1463 14.6694C31.1463 14.9201 30.9355 15.3245 30.514 15.8828L30.1893 16.3442C28.7195 18.6229 27.9847 20.4458 27.9847 21.813C27.9847 21.9725 28.0245 22.0522 28.1043 22.0522C28.1385 22.0522 28.1727 22.0465 28.2068 22.0352C28.241 22.0124 28.2752 21.9839 28.3094 21.9497C28.3549 21.9155 28.3948 21.8927 28.429 21.8813C29.5455 21.1978 30.5709 20.4401 31.5052 19.6084C32.4508 18.7653 33.2996 17.9564 34.0516 17.1816C34.8035 16.3955 35.47 15.7575 36.0511 15.2676C36.0739 15.3018 36.0853 15.353 36.0853 15.4214C36.0853 15.6606 35.8802 16.1449 35.47 16.874C35.0599 17.6032 34.4275 18.509 33.573 19.5913C32.7299 20.6737 31.7957 21.7161 30.7703 22.7188C29.9158 23.5049 29.1468 23.8979 28.4632 23.8979ZM34.1021 24.2568C34.011 24.2568 33.8686 24.2113 33.6749 24.1201C33.4698 24.0176 33.2534 23.6872 33.0255 23.1289L33.0084 23.0093C33.0084 22.451 33.7148 20.4173 35.1275 16.9082C36.0162 14.6637 36.4662 13.4276 36.4776 13.1997C36.5232 12.3452 36.7853 11.3825 37.2638 10.3115C37.4916 9.82161 37.6682 9.3374 37.7936 8.85889C37.8505 8.69938 37.936 8.61963 38.0499 8.61963C38.1183 8.61963 38.2094 8.65951 38.3233 8.73926C38.9386 9.11523 39.4855 9.57666 39.964 10.1235C40.0209 10.1919 40.0494 10.266 40.0494 10.3457C40.038 10.4938 39.7133 11.1546 39.0753 12.3281C38.574 13.2738 37.5771 15.484 36.0846 18.959C36.2555 18.6514 36.603 18.076 37.1271 17.2329C38.3917 15.2163 39.531 13.8092 40.545 13.0117C40.9324 12.7041 41.2799 12.5503 41.5875 12.5503C41.7584 12.5503 41.9179 12.5959 42.066 12.687C42.4534 12.9946 42.6926 13.3706 42.7838 13.8149C42.8408 14.1681 42.8692 14.5441 42.8692 14.9429V15.5239C42.8692 16.5835 42.9832 17.1133 43.211 17.1133C43.3136 17.1133 43.4617 17.0848 43.6554 17.0278C44.6466 16.7544 45.6549 16.2417 46.6803 15.4897C47.0904 15.1821 47.3468 15.0283 47.4493 15.0283C47.5746 15.0283 47.6373 15.2163 47.6373 15.5923C47.6373 15.8543 47.5746 16.105 47.4493 16.3442C47.0733 17.005 46.5777 17.5633 45.9625 18.019C45.3473 18.4748 44.6808 18.7026 43.963 18.7026C43.3136 18.7026 42.6983 18.4178 42.1173 17.8481C41.5021 17.1987 41.1375 16.5721 41.0235 15.9683C40.9324 15.5011 40.8868 15.1024 40.8868 14.772L40.921 14.2593C40.921 14.077 40.8868 13.9858 40.8185 13.9858C40.7159 13.9858 40.4368 14.3049 39.9811 14.9429C38.8873 16.4696 37.7366 18.4634 36.5289 20.9243C35.8453 22.3143 35.2984 23.2713 34.8883 23.7954C34.6035 24.103 34.3414 24.2568 34.1021 24.2568ZM47.3461 31.3491C48.2348 30.2782 49.038 29.1445 49.7558 27.9482C50.5761 26.5583 51.3736 25.1284 52.1483 23.6587C51.0318 24.741 50.0463 25.9089 49.1918 27.1621C48.3487 28.4154 47.7335 29.811 47.3461 31.3491ZM46.9701 33.1948C46.6283 33.1948 46.258 33.0068 45.8593 32.6309C45.4605 32.2663 45.2611 31.8333 45.2611 31.332C45.2611 31.1725 45.2782 31.013 45.3124 30.8535C45.62 29.5433 46.2068 28.2729 47.0727 27.0425C47.9499 25.812 48.9582 24.6727 50.0976 23.6245C51.2483 22.5763 52.3819 21.6706 53.4984 20.9072C53.7149 20.7249 54.0795 20.1382 54.5922 19.147C55.1163 18.1444 55.6461 17.062 56.1815 15.8999C56.717 14.7378 57.1158 13.8263 57.3778 13.1655L57.3266 13.1313C55.2302 15.1707 53.5155 17.0164 52.1825 18.6685C50.8495 20.3091 49.7501 21.4256 48.8842 22.0181C48.5424 22.2118 48.2063 22.3086 47.8759 22.3086C47.1125 22.3086 46.5201 21.9212 46.0985 21.1465C45.9162 20.8275 45.8251 20.4914 45.8251 20.1382C45.8251 19.9445 45.8536 19.7451 45.9105 19.54C46.446 17.6829 47.3632 15.5524 48.662 13.1484C49.1063 12.3281 49.4481 11.918 49.6874 11.918C49.7899 11.918 49.9437 12.0148 50.1488 12.2085C51.0375 12.9718 51.4818 13.513 51.4818 13.832C51.4818 14.0029 51.3565 14.1795 51.1059 14.3618C50.9577 14.4757 50.821 14.6125 50.6957 14.772C48.85 17.5405 47.9158 19.2495 47.893 19.8989C48.0525 19.8989 48.7019 19.3464 49.8412 18.2412C50.4564 17.6374 50.8894 17.2044 51.14 16.9424L54.3187 13.7979C55.9594 12.2028 56.9848 11.2629 57.3949 10.978C57.6456 10.8071 57.8393 10.7217 57.976 10.7217C58.1013 10.7331 58.2494 10.8071 58.4203 10.9438C59.2634 11.4451 59.685 11.9465 59.685 12.4478C59.685 12.8693 59.4685 13.5301 59.0355 14.4302C58.6026 15.3188 57.7424 16.8683 56.455 19.0786C59.383 17.4266 61.1832 16.6006 61.8554 16.6006C61.9693 16.6006 62.0491 16.6234 62.0946 16.6689C61.9351 16.7829 61.6389 16.9481 61.206 17.1646C59.5084 17.9279 57.5943 19.1641 55.4638 20.873C55.2587 21.0781 54.7232 21.9269 53.8573 23.4194C51.7382 27.0539 49.8184 30.0788 48.098 32.4941C47.7449 32.9613 47.3689 33.1948 46.9701 33.1948ZM70.0229 27.8115C69.6698 27.7204 69.3963 27.4697 69.2026 27.0596C69.1115 26.8659 69.0659 26.6665 69.0659 26.4614C69.0659 26.2108 69.1571 25.8804 69.3394 25.4702C69.6584 24.7638 71.0085 24.0916 73.3896 23.4536C73.5492 23.4194 73.6517 23.3454 73.6973 23.2314C73.7542 23.1175 73.7998 22.9409 73.834 22.7017C73.9479 21.6193 74.4549 20.1268 75.355 18.2241C76.1183 16.6632 77.457 14.3447 79.3711 11.2686C80.2712 9.81022 80.7497 9.05257 80.8066 8.99561L80.2939 9.21777C79.8496 9.37728 79.4395 9.59945 79.0635 9.88428C78.8926 10.0096 78.7274 10.0723 78.5679 10.0723C78.1235 10.0723 77.8273 9.71908 77.6792 9.0127C77.645 8.86458 77.6279 8.71077 77.6279 8.55127C77.6279 8.24365 77.6906 7.91895 77.8159 7.57715C77.9412 7.33789 78.4596 7.08724 79.3711 6.8252C80.2826 6.56315 81.3307 6.39225 82.5156 6.3125C82.6751 6.3125 82.7948 6.27832 82.8745 6.20996C82.9657 6.1416 83.0682 6.02767 83.1821 5.86816C83.5695 5.36686 83.8315 5.11051 83.9683 5.09912C84.048 5.09912 84.1562 5.17318 84.293 5.32129C84.4411 5.4694 84.6519 5.72575 84.9253 6.09033C85.0392 6.23844 85.2215 6.3125 85.4722 6.3125C85.7342 6.3125 86.1102 6.40365 86.6001 6.58594C86.9077 6.72266 87.1299 6.90495 87.2666 7.13281C87.4261 7.41764 87.5059 7.67399 87.5059 7.90186C87.5059 8.14111 87.4318 8.26074 87.2837 8.26074C87.1584 8.26074 87.0957 8.21517 87.0957 8.12402C87.0957 8.10124 87.1014 8.07275 87.1128 8.03857C87.1356 8.00439 87.147 7.97021 87.147 7.93604C87.147 7.76514 86.9077 7.66829 86.4292 7.64551C86.1899 7.64551 85.9735 7.6512 85.7798 7.6626C85.2785 7.6626 84.8911 7.83919 84.6177 8.19238C83.467 9.45703 82.208 10.9154 80.8408 12.5674C77.4912 16.612 75.3949 20.0413 74.5518 22.8555C74.5062 22.9694 74.4834 23.0492 74.4834 23.0947C74.4834 23.1289 74.5062 23.146 74.5518 23.146L74.7739 23.0947C75.3322 22.9466 75.8563 22.8726 76.3462 22.8726C76.3804 22.8726 76.5342 22.8783 76.8076 22.8896C77.0811 22.901 77.3716 23.146 77.6792 23.6245L77.7305 23.6758C78.0153 24.1201 78.1577 24.4562 78.1577 24.6841C78.1577 24.8664 78.0552 24.9575 77.8501 24.9575C77.5994 24.9575 77.4741 24.8778 77.4741 24.7183C77.4741 24.6727 77.4798 24.6214 77.4912 24.5645C77.5026 24.5075 77.5083 24.4505 77.5083 24.3936C77.4969 24.3138 77.4342 24.2739 77.3203 24.2739L77.1494 24.291C76.0898 24.5303 75.036 24.9404 73.9878 25.5215C72.9396 26.0911 72.0566 26.6095 71.3389 27.0767C70.6097 27.5552 70.1711 27.8001 70.0229 27.8115ZM86.2747 24.8721C85.9215 24.8721 85.7449 24.5417 85.7449 23.8809C85.7449 23.334 85.8304 22.7529 86.0013 22.1377C86.1836 21.5225 86.4171 21.0667 86.702 20.7705C86.8728 20.5768 87.0324 20.48 87.1805 20.48C87.3172 20.48 87.5337 20.5768 87.8299 20.7705C88.1831 20.987 88.3881 21.1693 88.4451 21.3174C88.5021 21.4541 88.5306 21.5794 88.5306 21.6934C88.5306 21.8757 88.4907 22.0921 88.4109 22.3428C88.24 22.9352 87.9495 23.4593 87.5394 23.915C86.9811 24.5531 86.5595 24.8721 86.2747 24.8721Z" fill="black"/>
</svg>
